<svg viewBox="0 0 298 87" fill="none" xmlns="http://www.w3.org/2000/svg">
<path d="M257.356 72.384C252.108 72.384 247.213 71.52 242.669 69.792C238.189 68.064 234.284 65.632 230.956 62.496C227.692 59.36 225.133 55.68 223.277 51.456C221.485 47.232 220.589 42.624 220.589 37.632C220.589 32.64 221.485 28.032 223.277 23.808C225.133 19.584 227.725 15.904 231.053 12.768C234.381 9.632 238.284 7.2 242.764 5.472C247.244 3.744 252.108 2.88 257.356 2.88C262.668 2.88 267.533 3.744 271.949 5.472C276.429 7.2 280.3 9.632 283.564 12.768C286.892 15.84 289.485 19.488 291.34 23.712C293.197 27.936 294.124 32.576 294.124 37.632C294.124 42.624 293.197 47.264 291.34 51.552C289.485 55.776 286.892 59.456 283.564 62.592C280.3 65.664 276.429 68.064 271.949 69.792C267.533 71.52 262.668 72.384 257.356 72.384ZM279.34 86.688C276.716 86.688 274.22 86.4 271.852 85.824C269.548 85.248 267.245 84.32 264.941 83.04C262.701 81.76 260.333 80.032 257.837 77.856C255.405 75.68 252.748 72.992 249.868 69.792L266.188 65.664C267.916 68.032 269.517 69.92 270.989 71.328C272.461 72.736 273.869 73.728 275.213 74.304C276.621 74.88 278.092 75.168 279.628 75.168C283.724 75.168 287.372 73.504 290.572 70.176L297.485 78.432C292.941 83.936 286.893 86.688 279.34 86.688ZM257.356 59.136C260.364 59.136 263.117 58.624 265.613 57.6C268.173 56.576 270.413 55.104 272.333 53.184C274.253 51.264 275.724 48.992 276.748 46.368C277.836 43.68 278.381 40.768 278.381 37.632C278.381 34.432 277.836 31.52 276.748 28.896C275.724 26.272 274.253 24 272.333 22.08C270.413 20.16 268.173 18.688 265.613 17.664C263.117 16.64 260.364 16.128 257.356 16.128C254.348 16.128 251.565 16.64 249.005 17.664C246.445 18.688 244.205 20.16 242.285 22.08C240.429 24 238.957 26.272 237.868 28.896C236.844 31.52 236.333 34.432 236.333 37.632C236.333 40.768 236.844 43.68 237.868 46.368C238.957 48.992 240.429 51.264 242.285 53.184C244.205 55.104 246.445 56.576 249.005 57.6C251.565 58.624 254.348 59.136 257.356 59.136Z" fill="#F28B30"/>
<path d="M188.773 18.816C192.869 18.816 196.517 19.648 199.717 21.312C202.981 22.912 205.542 25.408 207.398 28.8C209.254 32.128 210.182 36.416 210.182 41.664V71.232H195.206V43.968C195.206 39.808 194.277 36.736 192.421 34.752C190.629 32.768 188.069 31.776 184.742 31.776C182.374 31.776 180.229 32.288 178.309 33.312C176.453 34.272 174.981 35.776 173.893 37.824C172.869 39.872 172.357 42.496 172.357 45.696V71.232H157.382V19.584H171.686V33.888L168.997 29.568C170.853 26.112 173.509 23.456 176.965 21.6C180.421 19.744 184.357 18.816 188.773 18.816Z" fill="#525252"/>
<path d="M129.811 71.232V61.152L128.852 58.944V40.896C128.852 37.696 127.86 35.2 125.876 33.408C123.956 31.616 120.979 30.72 116.947 30.72C114.195 30.72 111.475 31.168 108.787 32.064C106.163 32.896 103.923 34.048 102.067 35.52L96.6915 25.056C99.5075 23.072 102.9 21.536 106.868 20.448C110.836 19.36 114.868 18.816 118.964 18.816C126.836 18.816 132.948 20.672 137.299 24.384C141.652 28.096 143.827 33.888 143.827 41.76V71.232H129.811ZM114.067 72C110.035 72 106.58 71.328 103.7 69.984C100.82 68.576 98.6115 66.688 97.0755 64.32C95.5395 61.952 94.7715 59.296 94.7715 56.352C94.7715 53.28 95.5075 50.592 96.9795 48.288C98.5155 45.984 100.915 44.192 104.179 42.912C107.443 41.568 111.699 40.896 116.947 40.896H130.675V49.632H118.579C115.059 49.632 112.628 50.208 111.284 51.36C110.004 52.512 109.363 53.952 109.363 55.68C109.363 57.6 110.1 59.136 111.572 60.288C113.108 61.376 115.188 61.92 117.812 61.92C120.308 61.92 122.547 61.344 124.531 60.192C126.515 58.976 127.956 57.216 128.852 54.912L131.156 61.824C130.068 65.152 128.083 67.68 125.203 69.408C122.323 71.136 118.611 72 114.067 72Z" fill="#525252"/>
<path d="M69.2565 71.232V0H84.2325V71.232H69.2565Z" fill="#525252"/>
<path d="M0 71.232V4.032H29.088C35.104 4.032 40.288 5.024 44.64 7.008C48.992 8.928 52.352 11.712 54.72 15.36C57.088 19.008 58.272 23.36 58.272 28.416C58.272 33.408 57.088 37.728 54.72 41.376C52.352 45.024 48.992 47.84 44.64 49.824C40.288 51.744 35.104 52.704 29.088 52.704H8.64L15.552 45.696V71.232H0ZM15.552 47.424L8.64 40.032H28.224C33.024 40.032 36.608 39.008 38.976 36.96C41.344 34.912 42.528 32.064 42.528 28.416C42.528 24.704 41.344 21.824 38.976 19.776C36.608 17.728 33.024 16.704 28.224 16.704H8.64L15.552 9.312V47.424Z" fill="#525252"/>
</svg>
